<mxfile host="jupyterhub-redhat-ods-applications.apps.buaws-dev.idu6.p1.openshiftapps.com" modified="2022-10-05T18:37:30.022Z" agent="5.0 (Macintosh; Intel Mac OS X 10_15_7) AppleWebKit/537.36 (KHTML, like Gecko) Chrome/105.0.0.0 Safari/537.36" etag="sZCNvs0tpkVLlI8KFLRI" version="16.4.5" type="embed"><diagram id="eM4sExiXKOIj9UGwSNM3" name="Page-1"><mxGraphModel dx="643" dy="592" grid="1" gridSize="10" guides="1" tooltips="1" connect="1" arrows="1" fold="1" page="1" pageScale="1" pageWidth="850" pageHeight="1100" math="0" shadow="0"><root><mxCell id="0"/><mxCell id="1" parent="0"/><mxCell id="Q52CScRdLbSG627hm18g-14" value="" style="ellipse;whiteSpace=wrap;html=1;fontSize=30;fillColor=#ffcd28;gradientColor=#ffa500;strokeColor=#d79b00;" parent="1" vertex="1"><mxGeometry x="100" y="120" width="460" height="230" as="geometry"/></mxCell><mxCell id="Q52CScRdLbSG627hm18g-15" value="TextBook" style="ellipse;whiteSpace=wrap;html=1;fontSize=30;fillColor=#d5e8d4;strokeColor=#82b366;" parent="1" vertex="1"><mxGeometry x="130" y="180" width="190" height="80" as="geometry"/></mxCell><mxCell id="Q52CScRdLbSG627hm18g-17" value="LabManual" style="ellipse;whiteSpace=wrap;html=1;fontSize=30;fillColor=#f8cecc;strokeColor=#b85450;" parent="1" vertex="1"><mxGeometry x="230" y="260" width="200" height="80" as="geometry"/></mxCell><mxCell id="Q52CScRdLbSG627hm18g-18" value="LectureNotes" style="ellipse;whiteSpace=wrap;html=1;fontSize=30;fillColor=#dae8fc;strokeColor=#6c8ebf;" parent="1" vertex="1"><mxGeometry x="330" y="180" width="200" height="80" as="geometry"/></mxCell><mxCell id="Q52CScRdLbSG627hm18g-19" value="OPEN OS" style="text;html=1;strokeColor=none;fillColor=none;align=center;verticalAlign=middle;whiteSpace=wrap;rounded=0;fontSize=39;fontStyle=2" parent="1" vertex="1"><mxGeometry x="145" y="140" width="370" height="30" as="geometry"/></mxCell><mxCell id="2" value="" style="sketch=0;pointerEvents=1;shadow=0;dashed=0;strokeColor=none;fillColor=#DF8C42;labelPosition=center;verticalLabelPosition=bottom;verticalAlign=top;align=center;outlineConnect=0;shape=mxgraph.veeam2.linux;" parent="1" vertex="1"><mxGeometry x="450" y="270" width="110" height="100" as="geometry"/></mxCell></root></mxGraphModel></diagram></mxfile>